<svg xmlns="http://www.w3.org/2000/svg" viewBox="0 0 117.8 94">
<!-- SVG created with Arrow, by QuiverAI (https://quiver.ai) -->
  <style type="text/css">.cls-0 {fill:#000;}</style>
  <path class="cls-0" d="m51 66c-8.9-3-17.6-11.5-17.9-25-0.3-13 9.1-28 26.2-28.8 6-0.3 12.9 1.9 18.6 7l2.9 2.8-1.5-0.4 2.1-1.8c-3.6-3.7-9.9-9.8-20.4-10.5-17-1-29 12.8-30.8 24.7-2.8 16.4 6.2 30.5 20.8 35v-3z"/>
  <path class="cls-0" d="m53.8 25.2v61h35v-5.2h-29.4v-55.8h-5.6z"/>
  <path class="cls-0" d="m65.3 41.9v4.8h18.2c-1.5 9.3-8.7 18.7-23 19.7v5.3c8.7 0 17.2-4.1 23.2-12.7v11.7h5.1v-28.8h-23.5zm19.4 4.1 0.3-0.4-0.3 0.4z"/>
  <path class="cls-0" d="m51.9 65.2c-7.8-2.5-18-10.3-18.1-24.8 0.2-13.4 9.1-26.8 25.1-27.4 7.1-0.3 13.9 2.9 20.1 9.8l3.7-2.9c-2.9-3.5-9.8-10.9-21.7-11.7-17.3-0.7-29.9 12.7-31.8 28.5-0.9 13.7 6.2 28.6 22.7 32.8v-4.3zm-0.9 3.8c-14.6-4.4-23.6-18.6-20.9-34.9 1.9-11.9 13.9-25.7 30.8-24.9 10.6 0.5 16.8 6.5 20.4 10.5l-2 1.7-1.4-1.3c-4.9-4.9-11.3-8-18.2-8-15.5 0-26.6 12.4-26.8 27.5-0.1 12 6.5 22.3 18.1 26.3v3.1z"/>
  <path class="cls-0" d="m58.6 81v-55.8h-4.8v60.8h35v-5h-30.2zm29.4 3.8h-33.3v-58.6h2.9v56.1h30.4v2.5z"/>
  <path class="cls-0" d="m65.3 42v4.8h18.2c-1.5 9.3-8.7 19.5-23 19.6v5.3c7.7 0 16.9-3.3 23.2-12.7v11.7h5.1l-0.1-28.7h-23.4zm17.1 17.4c-3.7 5.7-11.7 10.2-18.7 11.2l-2.5 0.3v-3.7l2.4-0.3c10.2-1.3 17.9-8.5 20.5-18.9l0.4-1.5-0.4 0.2v-0.1h-17.8v-3.8h21.6v27.1h-3.3l-0.3-11.3-1.9 0.8z"/>
</svg>